<?xml version="1.0" encoding="utf-8"?>
<!-- Generator: Adobe Illustrator 27.0.0, SVG Export Plug-In . SVG Version: 6.00 Build 0)  -->
<svg version="1.1" id="Layer_1" xmlns="http://www.w3.org/2000/svg" xmlns:xlink="http://www.w3.org/1999/xlink" x="0px" y="0px"
	 viewBox="0 0 56.2 64.3" style="enable-background:new 0 0 56.2 64.3;" xml:space="preserve">
<style type="text/css">
	.st0{fill:none;}
	.st1{fill:#F44336;}
	.st2{fill:#455A64;}
</style>
<path class="st0" d="M483.5,244.5c34.5,0,69.1,0,103.6,0c0,23.3,0,46.6,0,70c-82.9,0-165.9,0-249,0c0-23.3,0-46.6,0-70
	c46.8,0,93.6,0,140.4,0c-3,3.2-7.3,5.9-8.7,9.7c-2.2,5.9-2.8,12.5-3.2,18.9c-0.3,5.2-2.4,7.6-6.2,7.2c-1.6-4-2.7-7.3-4.3-10.3
	c-0.2-0.3-3.8,0.3-4.6,1.3c-3,4.4-0.3,8,4,12.3c-3.4,0.7-6.5,2.3-7.6,1.4c-1.6-1.4-2.6-4.5-2.4-6.8c0.7-7,4.8-11.4,12.5-12.9
	c-1.4-0.8-2.1-1.5-3-1.8c-7-2.4-15.6,3.1-17.5,11.5c-0.8,3.8-2.4,6-5,5.7c-1.9-4.2-3.3-7.6-5-10.8c-0.1-0.2-3.7,0.6-4.4,1.8
	c-2.9,4.4,0.2,7.7,4,11.9c-3.2,0.7-6,2.3-7.4,1.4c-1.6-1-2.8-4.2-2.6-6.2c0.7-7.2,4.7-12.1,12.7-13.4c-4.6-3.6-8.7-2.7-12.6-0.7
	c-5.1,2.6-7.9,6.9-8.3,12.7c-0.1,1.9-0.1,4.2-1.1,5.6c-5,7.4-16.2,11.5-24.4,7.6c-9.2-4.3-17.6-10.2-25.9-15.2
	c7.6-5.4,14.3-10.2,21-15c3.7-2.6,7.2-5.5,11.2-7.3c1.8-0.8,5.2-0.3,6.7,1c1.2,1.1,1.5,4.4,0.8,6.4c-1.1,3.5-3.3,6.7-5.2,10.5
	c1.8,0,3.5,0.4,4.9-0.1c3.8-1.2,5.7-6,5.1-11.9c-0.6-5.1-3.1-8.5-7.5-8.3c-4.2,0.2-8.8,0.8-12.4,2.8c-8.2,4.3-15.9,9.6-23.8,14.5
	c-1.6,1-3.2,1.8-5.8,3.3c2.3-7.2,4.2-13.1,6.2-19.2c-5.1-1.5-8.2-0.4-9.4,4.3c-1,4-2,8-2.8,11.2c-2.8,0.9-5,1.7-7.2,2.4
	c1.9,2.3,3.8,4.7,5.8,7c0.5-0.2,1.1-0.4,1.6-0.7c0,4.8,0,9.5,0,14.3c0.4,0,0.9,0,1.3,0.1c1-4.2,2-8.5,3.1-13.2
	c9.2,7.5,17.3,15.8,28.8,18.3c12.3,2.7,22.6-0.7,30.7-10.9c4.1,3.6,8.6,5.2,13.7,2.5c4.1-2.1,8.2-4.3,12.2-6.3
	c5.6,7.4,9.6,9.2,15,6.7s10.7-5.3,15.9-8c1.9,2.4,3.4,4.8,5.4,6.7c2.7,2.6,6.2,3.7,9.5,1.3c5.2-3.8,6.8-9.6,7.4-15.7
	c-1.2,0.9-1.6,2.2-2.2,3.4c-1.3,2.9-2.4,5.9-4.2,8.4c-0.8,1.1-3.4,2-4.5,1.5c-4.4-1.9-6.1-14.5-3-18.3s6.2-7.8,8.9-12
	C487,251.2,487,247.5,483.5,244.5z"/>
<g>
	<g>
		<path class="st1" d="M35.3,14.7c16.2,0.3,13.1,3,13.3,14.1c0.1,3.6,0.1,7.3,0,10.9c-0.1,3.7-2.2,5.9-5.9,5.9
			c-9.7,0.1-19.5,0.1-29.2,0c-3.7,0-5.9-2.1-6-5.8c-0.1-6.3-0.1-12.5,0-18.7c0.1-4,2.2-6,6.2-6.1c2.2,0,4.5,0,7.1,0
			c-1-7.8,4.3-6,8.5-6.4C33.9,8.1,35.6,10.2,35.3,14.7z M28,41.1c6.2,0,10.8-4.7,10.8-10.9c0-5.9-4.5-10.5-10.5-10.6
			c-6.2-0.1-11,4.4-11.1,10.6C17.2,36.3,21.8,41,28,41.1z M22.2,10.4c0.6,1.8,0.9,4.1,1.5,4.2c2.9,0.4,5.9,0.3,8.8-0.1
			c0.5-0.1,0.6-2.5,1-4.1C29.7,10.4,26.6,10.4,22.2,10.4z"/>
		<rect x="22.7" y="29.4" class="st1" width="10.4" height="2.8"/>
		<rect x="26.5" y="25.7" class="st1" width="2.8" height="10.4"/>
	</g>
	<line class="st0" x1="14.8" y1="10.6" x2="13.3" y2="10.6"/>
	<line class="st0" x1="33.6" y1="10.6" x2="35.3" y2="10.6"/>
	<path class="st2" d="M38.9,47.9c0.5,0.5,0.5,1,0.2,1.6c-0.4,0.6-0.9,1.2-1.4,1.8c-0.5,0.6-0.2,2.5,0.5,2.8c0.2,0.1,0.6-0.1,0.7-0.2
		c0.3-0.4,0.4-0.9,0.6-1.3c0.1-0.2,0.1-0.4,0.3-0.5c-0.1,0.9-0.3,1.8-1.1,2.4c-0.5,0.4-1,0.2-1.4-0.2c-0.3-0.3-0.5-0.6-0.8-1
		c-0.8,0.4-1.6,0.8-2.4,1.2c-0.8,0.4-1.4,0.1-2.3-1c-0.6,0.3-1.2,0.6-1.9,1c-0.8,0.4-1.5,0.2-2.1-0.4c-1.2,1.5-2.8,2.1-4.7,1.7
		c-1.8-0.4-3-1.6-4.4-2.8c-0.2,0.7-0.3,1.4-0.5,2c-0.1,0-0.1,0-0.2,0c0-0.7,0-1.4,0-2.2c-0.1,0-0.2,0.1-0.3,0.1
		c-0.3-0.4-0.6-0.7-0.9-1.1c0.3-0.1,0.7-0.2,1.1-0.4c0.1-0.5,0.3-1.1,0.4-1.7c0.2-0.7,0.7-0.9,1.4-0.6c-0.3,0.9-0.6,1.8-0.9,2.9
		c0.4-0.2,0.6-0.4,0.9-0.5c1.2-0.7,2.4-1.5,3.6-2.2c0.5-0.3,1.3-0.4,1.9-0.4c0.7,0,1.1,0.5,1.2,1.3c0.1,0.9-0.2,1.6-0.8,1.8
		c-0.2,0.1-0.5,0-0.7,0c0.3-0.6,0.6-1.1,0.8-1.6c0.1-0.3,0.1-0.8-0.1-1c-0.2-0.2-0.8-0.3-1-0.1c-0.6,0.3-1.2,0.7-1.7,1.1
		c-1,0.7-2.1,1.5-3.2,2.3c1.3,0.8,2.5,1.7,3.9,2.3c1.3,0.6,2.9,0,3.7-1.2c0.1-0.2,0.1-0.6,0.2-0.9c0.1-0.9,0.5-1.5,1.3-1.9
		c0.6-0.3,1.2-0.4,1.9,0.1c-1.2,0.2-1.8,0.9-1.9,2c0,0.3,0.1,0.8,0.4,0.9c0.2,0.1,0.6-0.1,1.1-0.2c-0.6-0.6-1-1.2-0.6-1.8
		c0.1-0.2,0.6-0.3,0.7-0.3c0.3,0.5,0.5,1,0.8,1.7c0.4,0,0.6-0.3,0.8-0.9c0.3-1.3,1.6-2.1,2.7-1.7c0.1,0,0.3,0.1,0.5,0.3
		c-1.2,0.2-1.8,0.9-1.9,2c0,0.3,0.1,0.8,0.4,1c0.2,0.1,0.6-0.1,1.2-0.2c-0.6-0.6-1.1-1.2-0.6-1.9c0.1-0.2,0.7-0.3,0.7-0.2
		c0.3,0.5,0.4,1,0.6,1.6c0.6,0.1,0.9-0.3,0.9-1.1c0.1-1,0.2-2,0.5-2.9c0.2-0.6,0.9-1,1.3-1.5C38.4,47.9,38.6,47.9,38.9,47.9z
		 M37.3,51c0.1,0.1,0.2,0.1,0.3,0.2c0.4-0.7,0.9-1.4,1.3-2.2c0.1-0.1-0.1-0.4-0.1-0.7c-0.2,0.1-0.5,0.2-0.6,0.4
		C37.8,49.4,37.6,50.2,37.3,51z M34.4,53.3c0.1,0,0.3-0.1,0.4-0.1c-0.1-0.4-0.2-0.7-0.3-1.1c-0.1,0-0.4,0.1-0.4,0.1
		C34.3,52.6,34.4,52.9,34.4,53.3z M30.4,52c-0.1,0-0.2,0-0.3,0c-0.3,0.5-0.2,0.8,0.5,1.1C30.5,52.8,30.4,52.4,30.4,52z"/>
</g>
<path class="st0" d="M473.1,264.5c1.9-5,3.7-10.2,5.9-15.1c0.5-1.1,2.5-1.5,3.8-2.3c0.4,1.5,1.5,3.4,1,4.4c-2.6,5-5.7,9.7-8.6,14.5
	C474.5,265.6,473.8,265,473.1,264.5z"/>
<path class="st0" d="M454.3,279.6c-0.4-2.3-0.9-4.5-1.2-6.8c0-0.2,1.5-0.5,2.4-0.8c0.6,2.3,1.2,4.6,1.8,7
	C456.2,279.2,455.3,279.4,454.3,279.6z"/>
<path class="st0" d="M427.6,271.5c0.4,2.5,0.8,5,1.1,7.6c-4.8-1.7-5.2-4.3-3.2-7.2C426.3,271.7,427,271.6,427.6,271.5z"/>
</svg>
