<?xml version="1.0" encoding="utf-8"?>
<!-- Generator: Adobe Illustrator 27.0.0, SVG Export Plug-In . SVG Version: 6.00 Build 0)  -->
<svg version="1.1" id="Layer_1" xmlns="http://www.w3.org/2000/svg" xmlns:xlink="http://www.w3.org/1999/xlink" x="0px" y="0px"
	 viewBox="0 0 500 500" style="enable-background:new 0 0 500 500;" xml:space="preserve">
<style type="text/css">
	.st0{fill:#211F1F;}
	.st1{opacity:0.7;fill:#211F1F;enable-background:new    ;}
	.st2{fill:none;stroke:#92E3A9;stroke-linecap:round;stroke-linejoin:round;stroke-miterlimit:10;}
	.st3{fill:#FFFFFF;}
	.st4{fill:#92E3A9;}
	.st5{opacity:0.5;fill:#FFFFFF;enable-background:new    ;}
	.st6{opacity:0.6;fill:#FFFFFF;enable-background:new    ;}
	.st7{fill:#FCFAFA;}
	.st8{fill:#737373;}
	.st9{fill:none;stroke:#263238;stroke-linecap:round;stroke-linejoin:round;stroke-miterlimit:10;}
	.st10{fill:#263238;}
	.st11{fill:none;stroke:#263238;stroke-width:2;stroke-linecap:round;stroke-linejoin:round;stroke-miterlimit:10;}
	.st12{fill:none;stroke:#FFFFFF;stroke-linecap:round;stroke-linejoin:round;stroke-miterlimit:10;}
	.st13{fill:#999999;stroke:#263238;stroke-miterlimit:10;}
	.st14{fill:#FFFFFF;stroke:#263238;stroke-linecap:round;stroke-linejoin:round;stroke-miterlimit:10;}
	.st15{fill:#263238;stroke:#263238;stroke-miterlimit:10;}
	.st16{opacity:0.2;fill:#FFFFFF;enable-background:new    ;}
	.st17{fill:none;stroke:#263238;stroke-miterlimit:10;}
	.st18{fill:#263238;stroke:#263238;stroke-linecap:round;stroke-linejoin:round;stroke-miterlimit:10;}
	.st19{fill:#FFFFFF;stroke:#263238;stroke-miterlimit:10;}
	.st20{fill:none;stroke:#263238;stroke-width:0.75;stroke-linecap:round;stroke-linejoin:round;stroke-miterlimit:10;}
	.st21{fill:#E81332;stroke:#263238;stroke-miterlimit:10;}
	.st22{fill:#FFFFFF;stroke:#263238;stroke-width:1;stroke-linecap:round;stroke-linejoin:round;stroke-miterlimit:9.9999;}
	.st23{fill:#FFFFFF;stroke:#263238;stroke-width:1;stroke-linecap:round;stroke-linejoin:round;stroke-miterlimit:10;}
	.st24{fill:#92E3A9;stroke:#263238;stroke-miterlimit:10;}
	.st25{fill:#FFFFFF;stroke:#263238;stroke-width:1;stroke-linecap:round;stroke-linejoin:round;stroke-miterlimit:9.9998;}
	.st26{fill:#92E3A9;stroke:#263238;stroke-width:1;stroke-linecap:round;stroke-linejoin:round;stroke-miterlimit:9.9999;}
	.st27{fill:#FFFFFF;stroke:#263238;stroke-width:1;stroke-linecap:round;stroke-linejoin:round;stroke-miterlimit:9.9996;}
	.st28{fill:#92E3A9;stroke:#263238;stroke-linecap:round;stroke-linejoin:round;stroke-miterlimit:10;}
</style>
<g id="Background_Simple">
	<g>
		<path class="st0" d="M417.7,51.8c-30.5-18.9-67-21-99.1-5.2c-27.4,13.4-48.7,36.2-76.1,49.6c-37.5,18.3-78.6,28.3-116.5,45.9
			c-37.9,17.6-74.1,45.1-87.7,84.6c-16,46.6-10.4,101.5,14.1,144.1c39.8,69.3,118.7,93.9,194.6,93c160.5-1.9,243.2-196.3,217-336
			C458.3,97.5,444.4,68.4,417.7,51.8z"/>
		<path class="st1" d="M417.7,51.8c-30.5-18.9-67-21-99.1-5.2c-27.4,13.4-48.7,36.2-76.1,49.6c-37.5,18.3-78.6,28.3-116.5,45.9
			c-37.9,17.6-74.1,45.1-87.7,84.6c-16,46.6-10.4,101.5,14.1,144.1c39.8,69.3,118.7,93.9,194.6,93c160.5-1.9,243.2-196.3,217-336
			C458.3,97.5,444.4,68.4,417.7,51.8z"/>
	</g>
</g>
<g id="Graphics">
	<g>
		<polygon class="st2" points="120.6,310.3 112.2,311.8 110.6,302.7 100.6,304.5 102.2,313.6 93.8,315.1 95.7,325.5 104.1,323.9 
			105.8,333 115.7,331.2 114.1,322.1 122.5,320.6 		"/>
		<polygon class="st2" points="204.5,170.9 196.4,168 199.5,159.3 189.9,155.9 186.9,164.6 178.8,161.8 175.3,171.7 183.4,174.6 
			180.3,183.3 189.9,186.6 192.9,177.9 201,180.8 		"/>
		<polygon class="st2" points="407.5,275.1 400,279.1 395.6,270.9 386.7,275.6 391,283.8 383.5,287.8 388.4,297.1 395.9,293.1 
			400.2,301.3 409.2,296.5 404.9,288.4 412.4,284.4 		"/>
		<circle class="st2" cx="85.5" cy="282.5" r="6.1"/>
		<path class="st2" d="M180.9,200.6c0,0.9-0.7,1.6-1.6,1.6c-0.9,0-1.6-0.7-1.6-1.6c0-0.9,0.7-1.6,1.6-1.6
			C180.1,199,180.9,199.8,180.9,200.6z"/>
		<path class="st2" d="M106.7,172.9c0,3.2-2.6,5.7-5.7,5.7s-5.7-2.6-5.7-5.7s2.6-5.7,5.7-5.7C104.2,167.1,106.7,169.7,106.7,172.9z"
			/>
		<path class="st2" d="M358.8,250.3c0,1.8-1.5,3.2-3.2,3.2c-1.8,0-3.2-1.4-3.2-3.2c0-1.8,1.5-3.2,3.2-3.2
			C357.3,247.1,358.8,248.6,358.8,250.3z"/>
		<circle class="st2" cx="326" cy="144.3" r="7.2"/>
	</g>
</g>
<g id="Character">
	<g>
		<path class="st3" d="M281.4,209.5c0.4,0.6,11.9,2.9,17.8,11.5s8.7,15.9,8.7,15.9s10,5.9,15,10.8s11.2,11.4,15.9,14.8
			s14.3,9.9,16.8,17.4c0,0-14.5,39.6-18.6,48.4s-14.2,27.4-14.2,27.4l-18,76.5H200.4l-3.6-26.2c0,0-32-6.3-45.4-18
			c0,0-1.3-29,4.3-54.9c5.6-25.9,24.6-79.6,37.5-96.1c0,0,20.6-9.8,38.7-13c0,0,11.8-9.3,19.5-10.3
			C259.2,212.6,281.4,209.5,281.4,209.5z"/>
		<g>
			<path class="st4" d="M198.2,417.7c9.3,1.8,17.4,3.3,26.8,3.2c9.4-0.1,19.1-2.2,26.8-7.6c1.6-1.1,3.1-2.4,5-2.9
				c4.1-1.1,8.2,1.6,12.2,2.8c5.2,1.6,10.8,0.8,15.9-1.1c5-1.9,9.6-4.9,14.1-7.9c-0.7,9.2-0.9,18.4-0.6,27.6l6.4,0.3l16.5-72.5
				c0,0-28.2,32.7-41.9,42.5l-26.3-6.8c0,0-2.5,2.1-7.7,3.1c0,0-2.4,9.2-15.8,9.2s-32.7-1.8-32.7-1.8L198.2,417.7z"/>
			<path class="st5" d="M198.2,417.7c9.3,1.8,17.4,3.3,26.8,3.2c9.4-0.1,19.1-2.2,26.8-7.6c1.6-1.1,3.1-2.4,5-2.9
				c4.1-1.1,8.2,1.6,12.2,2.8c5.2,1.6,10.8,0.8,15.9-1.1c5-1.9,9.6-4.9,14.1-7.9c-0.7,9.2-0.9,18.4-0.6,27.6l6.4,0.3l16.5-72.5
				c0,0-28.2,32.7-41.9,42.5l-26.3-6.8c0,0-2.5,2.1-7.7,3.1c0,0-2.4,9.2-15.8,9.2s-32.7-1.8-32.7-1.8L198.2,417.7z"/>
		</g>
		<g>
			<path class="st4" d="M171.2,282.5c0,0-12.3,59.4-11.6,79.8c0,0,16.6-4.7,28.2,0c0,0-19.7-2.2-28.2,6.9c-8.5,9,17.7,32.8,70,28
				c0,0,10.4,3.3,15.7,1.4c0,0-1.4,9.5-15.8,9.2c-14.4-0.6-56.3-0.9-78.1-19.8C151.4,387.9,148.7,333.3,171.2,282.5z"/>
			<path class="st6" d="M171.2,282.5c0,0-12.3,59.4-11.6,79.8c0,0,16.6-4.7,28.2,0c0,0-19.7-2.2-28.2,6.9c-8.5,9,17.7,32.8,70,28
				c0,0,10.4,3.3,15.7,1.4c0,0-1.4,9.5-15.8,9.2c-14.4-0.6-56.3-0.9-78.1-19.8C151.4,387.9,148.7,333.3,171.2,282.5z"/>
		</g>
		<g>
			<path class="st4" d="M196.2,293.9c0,0,3.6,26.3,9.4,31.8s33,3.7,43.8,9.6c0,0,10.1-17.5,28.4-28.5l-24.8,39.1l-21.5-5.1l-26.2-4
				l-2.2,5.1l-3.9,0C199.2,341.8,198.8,313.8,196.2,293.9z"/>
			<path class="st5" d="M196.2,293.9c0,0,3.6,26.3,9.4,31.8s33,3.7,43.8,9.6c0,0,10.1-17.5,28.4-28.5l-24.8,39.1l-21.5-5.1l-26.2-4
				l-2.2,5.1l-3.9,0C199.2,341.8,198.8,313.8,196.2,293.9z"/>
		</g>
		<g>
			<path class="st4" d="M298.9,240.3c11.2,6.6,12.5,14.1,14.8,19.4c-5.8,1.2-11.9,2.4-16.7,5.9c-6,4.4-9.2,11.6-11.8,18.6
				c-2.4,6.6-4.4,13.4-6,20.3c5.4-9.8,13.2-18.2,22.5-24.3c5.4-3.6,12.1-6.4,18.2-4.4c-5.2,2.2-11,5.1-12.1,10.6
				c-0.2,0.9-0.2,1.9,0.1,2.8c0.9,2.6,4.1,3.3,6.6,4.5c4.8,2.5,7.2,8,7.5,13.4s-1.4,10.6-3.1,15.7c-1.4,4.5-2.9,8.9-4.3,13.4
				c-1.8,5.7-3.7,11.5-7,16.5c-3.3,5-8.3,9.2-14.2,10.2c-2.5,0.4-5.1,0.2-7.3-0.8c-1.8-0.9-3.3-2.2-4.8-3.5
				c-7-5.7-15.7-9.4-24.6-10.6c11.6,7.7,17.1,21.6,21.9,34.7c-2.2-3.9-5.4-7.1-9.2-9.4c-1-0.6-2.2-1.1-3.4-1.1
				c-3.1,0.2-4.1,4.3-6.1,6.8c-2.3,3-6.4,4.1-10.2,3.6c-3.7-0.5-7.2-2.2-10.5-4c-14.2-7.3-28.3-14.6-42.5-21.9l-3,9
				c0,0,33.9,27,85.7,36.5c0,0,33.7-26.6,45.6-50.2c11.9-23.6,30.5-72,30.5-72s-6.8-12.9-18.4-19.6c0,0-8.7-4.1-10.5-9.2
				c-1.8-5.1-18.2-13.9-18.2-13.9S310.5,242.6,298.9,240.3z"/>
			<path class="st6" d="M298.9,240.3c11.2,6.6,12.5,14.1,14.8,19.4c-5.8,1.2-11.9,2.4-16.7,5.9c-6,4.4-9.2,11.6-11.8,18.6
				c-2.4,6.6-4.4,13.4-6,20.3c5.4-9.8,13.2-18.2,22.5-24.3c5.4-3.6,12.1-6.4,18.2-4.4c-5.2,2.2-11,5.1-12.1,10.6
				c-0.2,0.9-0.2,1.9,0.1,2.8c0.9,2.6,4.1,3.3,6.6,4.5c4.8,2.5,7.2,8,7.5,13.4s-1.4,10.6-3.1,15.7c-1.4,4.5-2.9,8.9-4.3,13.4
				c-1.8,5.7-3.7,11.5-7,16.5c-3.3,5-8.3,9.2-14.2,10.2c-2.5,0.4-5.1,0.2-7.3-0.8c-1.8-0.9-3.3-2.2-4.8-3.5
				c-7-5.7-15.7-9.4-24.6-10.6c11.6,7.7,17.1,21.6,21.9,34.7c-2.2-3.9-5.4-7.1-9.2-9.4c-1-0.6-2.2-1.1-3.4-1.1
				c-3.1,0.2-4.1,4.3-6.1,6.8c-2.3,3-6.4,4.1-10.2,3.6c-3.7-0.5-7.2-2.2-10.5-4c-14.2-7.3-28.3-14.6-42.5-21.9l-3,9
				c0,0,33.9,27,85.7,36.5c0,0,33.7-26.6,45.6-50.2c11.9-23.6,30.5-72,30.5-72s-6.8-12.9-18.4-19.6c0,0-8.7-4.1-10.5-9.2
				c-1.8-5.1-18.2-13.9-18.2-13.9S310.5,242.6,298.9,240.3z"/>
		</g>
		<path class="st7" d="M295.4,148.2c0,0,2.3-26.5-9.1-29s-17.8-13-17.8-13l-40.5,11.3l-6.3,24.3l4,12.3c0,0,0.8,11.4,1,17.1
			c0.2,5.6,0,10,4.3,16.9c4.3,6.8,8.2,13.7,17.5,19.6v15.6c0,0-5.7,16.7-2.6,26.9c0,0,1.9,2,7.1-1c5.2-3,27.6-17.9,35.3-33.5
			l2.4-39.6c0,0,6.4,1,9.2-4.9c4.1-5.7,3.9-12.4,2.3-17.9s-8.4-1.9-8.4-1.9L295.4,148.2z"/>
		<path class="st8" d="M248.9,187.1c0,0,3.2-4,9.1-3.6c0,0,4.9-7.7,10-6.3c0,0,1.6,8.1-4.6,11.4
			C255.4,192.7,248.9,187.1,248.9,187.1z"/>
		<path class="st9" d="M233.8,114.2c0,0-9.7,12.7-9.1,26c0.6,13.3,2.5,22.7,1.9,32.9s10.2,27.4,21.3,34.3c8.3,5.2,18.6,4.3,26.7-1.1
			c9-6,14-16.8,15.8-27.1c0.2-1,0.3-2.1,0.4-3.1"/>
		<path class="st9" d="M247.9,207.4c0,0,1.6,14.3,0,19.2c-1.7,5.4-3.8,17.9-2,23.6c1.8,5.7,35.9-18.2,42.5-34.5
			c0,0,0.9-31.8,3.2-39.7"/>
		<path class="st9" d="M247,186.7c0,0,15.5,4.4,21.8-11.6"/>
		<path class="st10" d="M248.2,210.9c0,0,3.3,10.2,10.4,10.8c7.1,0.6,24.9-13.7,31-30.5v-8.4c0,0-5,22-19.6,26
			c-14.6,4.1-21.5-1.1-21.5-1.1L248.2,210.9z"/>
		<path class="st9" d="M267.9,177.2c-6.9-0.5-10,6.3-10,6.3c-5.9-0.7-9.1,3.6-9.1,3.6s4.9,5,12.7,2.3
			C269.4,186.6,267.9,177.2,267.9,177.2z"/>
		<path class="st9" d="M250.7,147c0,3.1,0,6.4-0.4,9.5c-0.4,2.8-1.7,5.5-2.8,8.2c-1,2.4-2.7,6.1-1.3,8.7c1.6,2.9,6.8,0,6.8,0"/>
		<path class="st9" d="M256.3,172.8c1.8,0.2,4.3,0,4.8-3.1"/>
		<path class="st11" d="M262,143.2c0,0,5.9-5.8,12.7,0"/>
		<path class="st11" d="M241.8,145.7c0,0-4.7-6-10.8,0"/>
		<path class="st9" d="M287.1,160.9c0,0,5.4-12.8,12.3-10.1c4.8,1.9,5.1,10.2,2.5,15.9c-2.5,5.7-3.8,11.7-12.3,8.4"/>
		<path class="st10" d="M288.1,158.9c0,0-5.1-1.8-6.1-10.2c-1-8.3,4.2-16.7,2.3-22.8c-1.9-6.1-16.9-3-20.3-13.5c0,0-11.2,8.4-33,6.6
			c0,0-4.6,7.8-5.4,12.6c-0.8,4.6-1.3,14.5,0.1,22.5c0,0.3,0.1,0.5,0.1,0.8c1.6,8.1-6.2-11.1-6-19.3s-4.7-18.6,1.7-26.4
			c6.4-7.8,30.1-12.3,34.8-15.9c4.7-3.6,13.8,6.1,24.2,9.7s19.1,7.8,17.8,22.7s0.1,16.8,0.1,24.7
			C298.4,150.4,293.6,148.6,288.1,158.9z"/>
		<path class="st10" d="M268.4,154c0,2-0.8,3.7-1.7,3.7s-1.7-1.6-1.7-3.7s0.8-3.7,1.7-3.7C267.6,150.4,268.4,152,268.4,154z"/>
		<path class="st10" d="M241.8,154c0,2-0.8,3.7-1.7,3.7s-1.7-1.6-1.7-3.7s0.8-3.7,1.7-3.7C241.1,150.4,241.8,152,241.8,154z"/>
		<path class="st9" d="M262,158.9c0,0,3.6,3.8,8.1,4.3"/>
		<path class="st9" d="M237.7,163.2c0,0,6.5-0.5,8-4.3"/>
		<path class="st9" d="M252.9,252.7c4.9-3.1,11.3-1.9,16.6,0.3c2.9,1.2,5.7,2.7,8.6,4c1.5,0.6,2.9,1.2,4.4,1.6
			c3.6,1,2.3-3.6,2.1-5.6c-0.3-2.9-0.5-5.8-0.9-8.7c-0.1-0.6-0.1-1.3,0.2-1.8c0.3-0.5,0.9-0.7,1.4-0.9c6.4-2,13.3-1.1,20-1
			c0.6,0,1.2,0,1.8-0.3c1-0.7,0.9-2.1,0.6-3.3c-2.3-9.9-10.5-19.7-19.3-24.6"/>
		<path class="st9" d="M248.5,213.9c-4.4,1.8-8.9,3.8-12.7,6.6c-1.4,1-2.6,2.1-3.8,3.4c-0.8,0.9-1.6,2.1-1.6,3.3
			c0,1.2,0.7,2.2,1.6,3c0.7,0.6,1.4,1,2.2,1.4c1.8,0.9,3.9,1.7,4.8,3.6c0.2,0.4,0.3,0.8,0.2,1.2c-0.1,0.4-0.3,0.7-0.6,1
			c-1.5,1.9-4.2,3.3-4,5.7c0.1,1.9,2,3,3.7,3.8c1.7,0.8,3.6,1.7,4.2,3.4"/>
		<path class="st12" d="M222.4,120.1c0.6-4,4.8-6.6,8.9-7.2c4-0.7,8.1,0,12.2-0.3c6.8-0.6,13.2-4.3,17.1-9.9"/>
		<path class="st12" d="M226.9,108.9c7.3-4.3,17.5,0.2,24.5-4.4c2.1-1.3,3.6-3.3,5.1-5.3"/>
		<path class="st9" d="M319.5,273c-26,5.2-35.7,24.3-35.7,24.3L253,345.9"/>
		<path class="st9" d="M297.6,267.8c2.2-2,4.6-3.7,7.2-4.9"/>
		<path class="st9" d="M279.4,304.4c0,0,3.3-17.5,12.7-30.4"/>
		<path class="st9" d="M199.2,341.8c0,0-1.4-53.7-6-61.9"/>
		<path class="st9" d="M307.8,236.9c0,0,15,9,21.7,17.5c6.7,8.5,22.4,14.1,26,25.5c0,0-20.7,65.3-42.5,88.9s-33.7,33.3-33.7,33.3
			s-52.2-9.1-86.1-37.5l12.1-27.9c0,0,34.2,4.3,47.7,9.1s26.3,33.9,26.3,33.9"/>
		<path class="st9" d="M253.1,345.9c0,0,23.9,4.6,31.7,15.5"/>
		<polyline class="st9" points="321.9,357 304.8,432.1 200.4,432.1 196.8,405.9 		"/>
		<path class="st9" d="M245.4,398.4c-5.8,11.8-13.4,9.2-13.4,9.2c-58.9,2.2-80.5-19.8-80.5-19.8s-3-30.9,8.6-72.7
			c11.6-41.8,33.2-78.3,33.2-78.3c9.6-6.4,31.1-11.4,37.1-12.7c1-0.2,1.6-0.3,1.6-0.3"/>
		<path class="st9" d="M232,407.6c0,0-3.1-0.5-2.3-21.1"/>
		<path class="st9" d="M194.8,365.9c0,0-14.7-5.2-32.9,7.4"/>
		<path class="st9" d="M165.2,361.4c0,0,19.3-5.7,28,3.5"/>
		<path class="st13" d="M191.1,364.3l2.5,1.2l9.5-23.8c0,0-9.9-1.6-25.5,17.8C177.7,359.6,184.4,359.2,191.1,364.3z"/>
		<path class="st13" d="M229.6,386.5l-0.1,10.6c0,0,13.5,4,23.4-1.7L229.6,386.5z"/>
		<g>
			<g>
				<path class="st10" d="M302.7,240.4c0,0.2,0,0.4-0.1,0.6c-0.4,1.6-10.7,40.4-43.6,57.7c-0.3,0.2-0.6,0.2-0.9,0.2
					c-0.7,0-1.4-0.4-1.8-1.1c-0.5-1-0.1-2.2,0.8-2.7c30-15.7,40.6-51.6,41.5-54.9L302.7,240.4z"/>
			</g>
			<g>
				<path class="st10" d="M231.9,230.2c-3.4,7.4-7.8,20.3-8.2,37.6c0,1,0,2.1,0,3.2c0,0.3,0,0.5,0,0.8c-0.3,0-0.6,0-0.9,0.1
					c-1.1,0.2-2.1,0.5-3.1,1c0-1.5,0-2.9,0-4.3c0.4-22.4,7.1-37.7,10.7-44.3c1-0.2,1.6-0.3,1.6-0.3c-0.8,0.9-1.6,2.1-1.6,3.3
					C230.3,228.4,231,229.4,231.9,230.2z"/>
			</g>
			<g>
				<path class="st14" d="M271.3,289.7c2.4,3.2,0.4,8.6-4.3,12.1s-10.5,3.5-12.8,0.3c-2.4-3.2-0.4-8.6,4.3-12.1
					C263.2,286.6,269,286.4,271.3,289.7z"/>
				<path class="st14" d="M265.5,287.8c1.7,2.3,0.3,6.1-3,8.5c-3.3,2.4-7.4,2.5-9.1,0.2s-0.3-6.1,3-8.5
					C259.8,285.5,263.8,285.5,265.5,287.8z"/>
			</g>
			<g>
				<g>
					<path class="st15" d="M239.1,328.3c-0.9,0.7-2.1,0.5-2.8-0.4c-0.6-0.9-0.5-2.1,0.4-2.8c0.2-0.1,6.9-5.9,3.9-25.1
						c-0.2-1.6-0.6-3.4-1-5.2c-1.3-5.8-3.2-13.2-7.2-18.6c-2.3-3.1-5.4-4.6-8.8-4.4c-0.3,0-0.6,0-0.9,0.1c-1.1,0.2-2.1,0.5-3.1,1
						c-2.8,1.4-5.1,4-6.3,7.4l-0.4,1c-1.5,4.3-4,11.4-5.6,18.8c-1.6,7.9-2.1,16.1,0.7,21.8c1.6,3.2,4.1,5.4,7.8,6.6
						c1.1,0.3,1.6,1.5,1.3,2.5c-0.3,0.8-1.1,1.4-1.9,1.4c-0.2,0-0.4,0-0.6-0.1c-4.6-1.5-8-4.4-10.1-8.6c-3.2-6.5-2.8-15.3-1.2-23.6
						c1.5-8,4.2-15.6,5.8-20.1l0.4-1c1.8-5,5.5-8.8,10.1-10.4c0.8-0.3,1.6-0.5,2.5-0.6c0.5-0.1,1-0.1,1.5-0.1
						c4.6-0.2,8.9,2,11.9,6.1c4.5,6,6.6,13.9,7.9,20.1c0.5,2.1,0.8,4.1,1.1,6C247.8,321.6,239.4,328.1,239.1,328.3z"/>
				</g>
				<path class="st15" d="M213.8,332c0,0,7.2,3,9.1,0s0.4-4.4-2.1-4.6s-7.5,0-7.5,0L213.8,332z"/>
				<path class="st14" d="M217.2,331c-0.3,0.8-1.1,1.4-1.9,1.4c-0.2,0-0.4,0-0.6-0.1c-4.6-1.5-8-4.4-10.1-8.6
					c-3.2-6.5-2.8-15.3-1.2-23.6h4c-1.6,7.9-2.1,16.1,0.7,21.8c1.6,3.2,4.1,5.4,7.8,6.6C216.9,328.8,217.5,329.9,217.2,331z"/>
				<path class="st15" d="M232.4,326.2c-0.6,0.7-0.9,1.7-0.8,2.6c0.3,1.4,1.8,2.3,3.2,2.2s2.7-1,3.6-2c1-1.1,4.5-8.4,1.3-7.2
					C237.4,322.6,233.9,324.1,232.4,326.2z"/>
				<path class="st14" d="M239.1,328.3c-0.9,0.7-2.1,0.5-2.8-0.4c-0.6-0.9-0.5-2.1,0.4-2.8c0.2-0.1,6.9-5.9,3.9-25.1h4
					C247.8,321.6,239.4,328.1,239.1,328.3z"/>
			</g>
		</g>
		<g>
			<path class="st16" d="M257,151.6c0,0,12.6-6.5,24.1,0c0,0,0.2,9.6-4.2,13.6c-1.5,1.4-8.7,1.6-11.3,1.4
				C254.7,165.6,257,151.6,257,151.6z"/>
			<path class="st16" d="M249.1,151.6c0,0-12.6-6.5-24.1,0c0,0-0.2,9.6,4.2,13.6c1.6,1.4,8.7,1.6,11.3,1.4
				C251.4,165.6,249.1,151.6,249.1,151.6z"/>
			<path class="st17" d="M257,151.6c0,0,12.6-6.5,24.1,0c0,0,0.2,9.6-4.2,13.6c-1.5,1.4-8.7,1.6-11.3,1.4
				C254.7,165.6,257,151.6,257,151.6z"/>
			<path class="st17" d="M249.1,151.6c0,0-12.6-6.5-24.1,0c0,0-0.2,9.6,4.2,13.6c1.6,1.4,8.7,1.6,11.3,1.4
				C251.4,165.6,249.1,151.6,249.1,151.6z"/>
			<path class="st17" d="M249.1,151.6c0,0,2.8-2.1,7.9,0"/>
			<line class="st17" x1="281.2" y1="151.6" x2="286.4" y2="154"/>
		</g>
	</g>
</g>
<g id="Table">
	<g>
		<polyline class="st14" points="79.8,458.7 116.8,423.8 410.6,423.8 432.8,458.7 79.8,458.7 		"/>
		<rect x="79.8" y="458.7" class="st18" width="353" height="9.4"/>
	</g>
</g>
<g id="Notebook">
	<g>
		<polygon class="st19" points="116.8,450.1 116.8,442.8 174.8,442.8 174.8,450.1 163.6,450.1 		"/>
		<polygon class="st14" points="116.8,442.8 151.1,419.9 196.8,420.9 174.8,442.8 		"/>
		<polygon class="st14" points="174.8,450.1 196.8,428.1 196.8,420.9 174.8,442.8 		"/>
		<path class="st11" d="M173.3,441c0,0-4.6,0.9-4.6,4.9c0,4,4,5.2,4,5.2"/>
		<path class="st11" d="M168.6,441c0,0-4.6,0.9-4.6,4.9c0,4,4,5.2,4,5.2"/>
		<path class="st11" d="M164,441c0,0-4.6,0.9-4.6,4.9c0,4,4,5.2,4,5.2"/>
		<path class="st11" d="M159.4,441c0,0-4.6,0.9-4.6,4.9c0,4,4,5.2,4,5.2"/>
		<path class="st11" d="M154.7,441c0,0-4.6,0.9-4.6,4.9c0,4,4,5.2,4,5.2"/>
		<path class="st11" d="M150.1,441c0,0-4.6,0.9-4.6,4.9c0,4,4,5.2,4,5.2"/>
		<path class="st11" d="M145.5,441c0,0-4.6,0.9-4.6,4.9c0,4,4,5.2,4,5.2"/>
		<path class="st11" d="M140.9,441c0,0-4.6,0.9-4.6,4.9c0,4,4,5.2,4,5.2"/>
		<path class="st11" d="M135.6,441c0,0-4.6,0.9-4.6,4.9c0,4,4,5.2,4,5.2"/>
		<path class="st11" d="M130.4,441c0,0-4.6,0.9-4.6,4.9c0,4,4,5.2,4,5.2"/>
		<path class="st11" d="M124.7,441c0,0-4.6,0.9-4.6,4.9c0,4,4,5.2,4,5.2"/>
		<path class="st20" d="M154,425.5c-3.2,1.7-5.7,4.5-7.2,7.9c4.2-1.3,7.5-4.4,10.7-7.4c-1.2,2.9-2.3,5.7-3.5,8.6
			c3.2-0.2,6.2-2.1,7.8-4.8c-1.1,0.4-1.7,2-1,3c2.9-0.4,4.8-3.2,6.2-5.8c0.3,1.4,0.4,2.9,0.3,4.3c2.4,0.4,4.9,0,7.1-0.9"/>
	</g>
</g>
<g id="Box">
	<g>
		<rect x="307.8" y="388.7" class="st14" width="100.8" height="55.4"/>
		<polygon class="st14" points="307.4,444.1 291.2,428.7 291.2,373.3 307.4,388.7 		"/>
		<polygon class="st14" points="408.6,388.7 392.4,373.3 291.6,373.3 307.8,388.7 		"/>
		<polygon class="st21" points="371.5,409.5 362.6,409.5 362.6,400.2 350.1,400.2 350.1,409.5 340.4,409.5 340.4,422 350.1,422 
			350.1,431.4 362.6,431.4 362.6,422 371.5,422 		"/>
		<line class="st9" x1="357.3" y1="388.7" x2="341.1" y2="373.3"/>
	</g>
</g>
<g id="Medicine">
	<g>
		<g>
			<ellipse class="st22" cx="123" cy="130.4" rx="30.1" ry="30.1"/>
			<path class="st3" d="M148,125.8c0,4-2.5,7.8-6.6,9.1l-13.4,4.5l-16.4,5.5c-5,1.7-10.5-1-12.2-6c-0.3-1-0.5-2-0.5-3.1
				c0-4,2.5-7.8,6.5-9.1l14.9-5l14.9-5c5-1.7,10.5,1,12.2,6C147.8,123.8,148,124.8,148,125.8z"/>
			<path class="st4" d="M148,125.8c0,4-2.5,7.8-6.6,9.1l-13.4,4.5c-0.6-9.3-5.3-15.3-7.7-17.7l14.9-5c5-1.7,10.5,1,12.2,6
				C147.8,123.8,148,124.8,148,125.8z"/>
			<path class="st9" d="M148,125.8c0,4-2.5,7.8-6.6,9.1l-13.4,4.5l-16.4,5.5c-5,1.7-10.5-1-12.2-6c-0.3-1-0.5-2-0.5-3.1
				c0-4,2.5-7.8,6.5-9.1l14.9-5l14.9-5c5-1.7,10.5,1,12.2,6C147.8,123.8,148,124.8,148,125.8z"/>
			<path class="st9" d="M128,139.5c0,0,0.1-9.6-7.7-17.7"/>
			<path class="st12" d="M144.8,122.2c0.6,0.9,0.9,2.1,0.9,3.5"/>
			<path class="st12" d="M124.2,123.2l12-3.9c2.2-0.7,4.6-0.5,6.5,0.7"/>
		</g>
		<g>
			
				<ellipse transform="matrix(0.9209 -0.3898 0.3898 0.9209 0.878 127.9935)" class="st23" cx="315.8" cy="61.8" rx="30.1" ry="30.1"/>
			<g>
				<path class="st4" d="M326.2,74.5l-26.3-8.8c-4.5-1.5-7-6.5-5.5-11l0,0c1.5-4.5,6.5-7,11-5.5l26.3,8.8c4.5,1.5,7,6.4,5.5,11l0,0
					C335.6,73.5,330.7,76,326.2,74.5z"/>
				<line class="st9" x1="307" y1="65" x2="311.4" y2="54.5"/>
				<line class="st9" x1="321.4" y1="69.8" x2="325.8" y2="59.3"/>
				<circle class="st10" cx="310.6" cy="64.7" r="0.9"/>
				<path class="st10" d="M319.3,67.3c0,0.5-0.4,0.9-0.9,0.9c-0.5,0-0.9-0.4-0.9-0.9s0.4-0.9,0.9-0.9S319.3,66.8,319.3,67.3z"/>
				<circle class="st10" cx="314" cy="56.8" r="0.9"/>
				<path class="st10" d="M322.6,59.3c0,0.5-0.4,0.9-0.9,0.9c-0.5,0-0.9-0.4-0.9-0.9s0.4-0.9,0.9-0.9S322.6,58.8,322.6,59.3z"/>
				<path class="st9" d="M326.2,74.5l-26.3-8.8c-4.5-1.5-7-6.5-5.5-11l0,0c1.5-4.5,6.5-7,11-5.5l26.3,8.8c4.5,1.5,7,6.4,5.5,11l0,0
					C335.6,73.5,330.7,76,326.2,74.5z"/>
			</g>
		</g>
		<g>
			<circle class="st14" cx="202.1" cy="60.2" r="30.1"/>
			<g>
				<path class="st14" d="M219.4,61v12.3c0,3.1-2,5.7-4.4,5.7h-25.6c-2.5,0-4.4-2.5-4.4-5.7V61c0-3.1,2-5.7,4.4-5.7h4.2v-7.2h17v7.2
					h4.4C217.4,55.3,219.4,57.9,219.4,61z"/>
				<rect x="184.9" y="62.4" class="st24" width="34.5" height="7.7"/>
				<g>
					<path class="st24" d="M213.9,50.7h-23.4v-5.6c0-3,2.4-5.4,5.4-5.4h12.6c3,0,5.4,2.4,5.4,5.4L213.9,50.7L213.9,50.7z"/>
					<line class="st9" x1="194.6" y1="40.1" x2="194.6" y2="50.7"/>
					<line class="st9" x1="200.1" y1="39.8" x2="200.1" y2="50.7"/>
					<line class="st9" x1="205.7" y1="39.8" x2="205.7" y2="50.7"/>
					<line class="st9" x1="211.2" y1="40.4" x2="211.2" y2="50.7"/>
				</g>
			</g>
		</g>
		<g>
			<g>
				<ellipse class="st25" cx="95.3" cy="219.9" rx="30.1" ry="30.1"/>
				<g>
					
						<ellipse transform="matrix(0.4275 -0.904 0.904 0.4275 -144.8831 211.5006)" class="st26" cx="94.5" cy="220.1" rx="13.9" ry="17.7"/>
					
						<ellipse transform="matrix(0.4275 -0.904 0.904 0.4275 -142.119 211.1332)" class="st26" cx="95.6" cy="217.8" rx="13" ry="17.7"/>
					<line class="st9" x1="100.8" y1="208.9" x2="89.8" y2="224.2"/>
				</g>
			</g>
			<path class="st12" d="M94.2,206.4c2.5,0.3,4.3,1,4.3,1"/>
			<path class="st12" d="M84.5,220.9c0,0-5.6-6.1-0.1-12c1.3-1.4,2.9-2.1,4.6-2.4"/>
		</g>
		<g>
			
				<ellipse transform="matrix(0.1617 -0.9868 0.9868 0.1617 128.6591 591.3666)" class="st27" cx="412.4" cy="220" rx="30.1" ry="30.1"/>
			<g>
				<path class="st24" d="M429.7,223c-0.2,0.3-0.5,0.7-0.7,1c-4.5,6.2-11.5,12.1-16.6,13.2v-0.1c-5-1.1-11.7-6.7-16.2-12.7
					c-0.2-0.3-0.5-0.7-0.7-1c-4.3-6.2-6.2-12.8-1.3-15.4c9.8-5.5,18.3,6.3,18.3,6.3s8.5-11.7,18.3-6.2
					C435.4,210.6,433.8,216.9,429.7,223z"/>
				<g>
					<path class="st3" d="M429.7,223c-0.2,0.3-0.5,0.7-0.7,1h-2.5l-2.8,3.8l-1.9-11.1l-3,7.6h-7.1l-3.6,6.1l-2.8-12.2l-3.6,6.4h-5.5
						c-0.2-0.3-0.5-0.7-0.7-1h5.6l4.6-8.1l2.8,12.4l2.7-4.4h7l4-10.2l2.1,12.4l1.8-2.3H429.7z"/>
				</g>
			</g>
		</g>
		<g>
			<circle class="st14" cx="383.5" cy="130.8" r="30.1"/>
			<g>
				<g>
					<path class="st14" d="M381.2,116.8c0.3,0.7-1.5,2.1-4,3.2c-2.5,1.1-4.8,1.5-5.1,0.9s1.5-2.1,4-3.2
						C378.6,116.6,380.9,116.2,381.2,116.8z"/>
					<polygon class="st14" points="394.8,144.8 385.7,149.1 377.7,132.5 372.1,121 381.1,116.6 386.5,127.8 					"/>
					<path class="st28" d="M373.8,124.4c0,0,3.9-1.8,3.9-1.8"/>
					<path class="st28" d="M375.5,128c0,0,3.9-1.8,3.9-1.8"/>
					<polygon class="st14" points="389.2,147.5 393.8,153.6 391.5,146.3 					"/>
					<path class="st24" d="M394.8,144.8L394.8,144.8c-2.1,2.1-4.8,3.6-7.7,4.1l-1.3,0.2l-8.1-16.6l8.9-4.6L394.8,144.8z"/>
					<line class="st9" x1="379.4" y1="135.6" x2="383" y2="133.9"/>
					<path class="st28" d="M381.4,139.5c0,0,3.6-1.7,3.6-1.7"/>
				</g>
				<polygon class="st14" points="375.2,119.5 372.4,113.1 374.6,111.8 377.7,118.3 				"/>
				<g>
					<path class="st14" d="M380.1,111l-0.7-1.5l-12,5.4l0.7,1.5c0.3,0.6,3.2-0.1,6.5-1.6C377.9,113.4,380.4,111.6,380.1,111z"/>
					<path class="st14" d="M379.4,109.5c-0.3-0.6-3.2,0.1-6.5,1.6c-3.3,1.5-5.8,3.2-5.5,3.8c0.3,0.6,3.2-0.1,6.5-1.6
						C377.2,111.8,379.7,110.1,379.4,109.5z"/>
				</g>
			</g>
		</g>
	</g>
</g>
</svg>
